# xmcd
#
# Track frame offsets: 
#        182
#        14312
#        28695
#        40515
#        58825
#        78647
#        89430
#        101617
#        115457
#        133995
#        153007
#        168840
#        190612
#        212767
#        234152
#        251115
#        264272
#        278747
#        290722
#        304227
#        317465
#
# Disc length: 4404 seconds
#
# Revision: 4
# Processed by: cddbd v1.5.2PL0 Copyright (c) Steve Scherf et al.
# Submitted via: ExactAudioCopy v0.95b4
#
DISCID=1e113215
DTITLE=Joe Tex - Different strokes
DYEAR=1900
DGENRE=Soul
TTITLE0=Have you ever?
TTITLE1=My neighbour's got the gimmes
TTITLE2=Mrs. Wiggins (If you don't mind)
TTITLE3=Baby it's rainin'
TTITLE4=Under your powerful love
TTITLE5=Don't play with me
TTITLE6=The same things it took to get me [Duet with Marble John]
TTITLE7=All a man needs (is his woman's love)
TTITLE8=When a woman stops loving a man
TTITLE9=I can see everybody's baby
TTITLE10=She said yeah
TTITLE11=Time brings about a change
TTITLE12=I don't want you to love me
TTITLE13=I'm gonna try love again
TTITLE14=This time we'll make it all the way
TTITLE15=It's ridiculous
TTITLE16=We're killing ourselves
TTITLE17=Back off
TTITLE18=Does it run in your family
TTITLE19=Living in the last days
TTITLE20=I'VE SEEN ENOUGH
EXTD=
EXTT0=
EXTT1=
EXTT2=
EXTT3=
EXTT4=
EXTT5=
EXTT6=
EXTT7=
EXTT8=
EXTT9=
EXTT10=
EXTT11=
EXTT12=
EXTT13=
EXTT14=
EXTT15=
EXTT16=
EXTT17=
EXTT18=
EXTT19=
EXTT20=
PLAYORDER=
